<svg xmlns="http://www.w3.org/2000/svg" style="display:none">
<symbol id="icon-github" viewBox="0 0 24 24"><path d="M12 .5C5.65.5.5 5.65.5 12c0 5.08 3.29 9.39 7.86 10.91.58.11.79-.25.79-.56 0-.28-.01-1.02-.02-2-3.2.7-3.88-1.54-3.88-1.54-.53-1.35-1.3-1.71-1.3-1.71-1.06-.73.08-.72.08-.72 1.17.08 1.79 1.2 1.79 1.2 1.04 1.78 2.72 1.27 3.38.97.11-.76.41-1.27.75-1.56-2.56-.29-5.26-1.28-5.26-5.71 0-1.26.45-2.29 1.19-3.1-.12-.29-.52-1.46.11-3.04 0 0 .97-.31 3.18 1.18a11 11 0 0 1 5.79 0c2.2-1.49 3.17-1.18 3.17-1.18.63 1.58.24 2.75.12 3.04.74.81 1.19 1.84 1.19 3.1 0 4.44-2.7 5.42-5.27 5.7.42.36.8 1.08.8 2.18 0 1.57-.01 2.84-.01 3.23 0 .31.21.68.8.56A11.5 11.5 0 0 0 23.5 12C23.5 5.65 18.35.5 12 .5z"/></symbol>
<symbol id="icon-linkedin" viewBox="0 0 24 24"><path d="M4.98 3.5C4.98 4.88 3.87 6 2.5 6S0 4.88 0 3.5 1.11 1 2.5 1 4.98 2.12 4.98 3.5zM0 8h5V24H0zM8 8h4.8v2.2h.1c.7-1.2 2.4-2.2 5-2.2C22.7 8 24 10.2 24 14.3V24h-5v-8.3c0-2-0.1-4.6-2.8-4.6-2.8 0-3.2 2.2-3.2 4.5V24H8V8z"/></symbol>
<symbol id="icon-twitter" viewBox="0 0 24 24"><path d="M23 4.6c-.8.4-1.6.6-2.6.8.9-.6 1.5-1.5 1.8-2.6-.8.5-1.8.9-2.9 1-1-1-2.5-1.6-4.1-1.6-3.1 0-5.6 2.5-5.6 5.6 0 .4 0 .8.1 1.2C7.7 9.3 4.1 7.4 1.7 4.7c-.4.7-.6 1.5-.6 2.4 0 1.6.8 2.9 2 3.7-.7 0-1.3-.2-1.8-.5v.1c0 2.3 1.6 4.3 3.7 4.7-.4.1-.9.1-1.3.1-.3 0-.6 0-.9-.1.6 1.9 2.4 3.3 4.6 3.3-1.7 1.3-3.8 2-6.1 2-.4 0-.8 0-1.1-.1 2.2 1.4 4.9 2.2 7.7 2.2 9.3 0 14.4-7.7 14.4-14.4v-.7c1-.7 1.8-1.5 2.5-2.6z"/></symbol>
</svg>